<?xml version="1.0" encoding="UTF-8" standalone="no"?>
<!-- Uploaded to: SVG Repo, www.svgrepo.com, Generator: SVG Repo Mixer Tools -->

<svg
   width="733.33325"
   height="730.65216"
   viewBox="0 0 21.999998 21.919565"
   version="1.1"
   id="svg2"
   sodipodi:docname="rankswitch-favicon.svg"
   xml:space="preserve"
   inkscape:version="1.3.2 (091e20e, 2023-11-25, custom)"
   xmlns:inkscape="http://www.inkscape.org/namespaces/inkscape"
   xmlns:sodipodi="http://sodipodi.sourceforge.net/DTD/sodipodi-0.dtd"
   xmlns="http://www.w3.org/2000/svg"
   xmlns:svg="http://www.w3.org/2000/svg"><defs
     id="defs2" /><sodipodi:namedview
     id="namedview2"
     pagecolor="#505050"
     bordercolor="#ffffff"
     borderopacity="1"
     inkscape:showpageshadow="0"
     inkscape:pageopacity="0"
     inkscape:pagecheckerboard="1"
     inkscape:deskcolor="#505050"
     inkscape:zoom="0.78680095"
     inkscape:cx="222.41966"
     inkscape:cy="417.51348"
     inkscape:window-width="1920"
     inkscape:window-height="1009"
     inkscape:window-x="1912"
     inkscape:window-y="-8"
     inkscape:window-maximized="1"
     inkscape:current-layer="g4" /><g
     id="g3"
     transform="translate(-1.0000002,-0.88043785)"><g
       id="g4"><path
         d="m 12,16.87 v 1.091 l -2.323,1.017 a 1.692,1.692 0 0 1 -1.354,0 L 1,15.773 v -9.94 a 2.456,2.456 0 0 1 1.472,-2.25 l 5.85,-2.561 a 1.692,1.692 0 0 1 1.355,0 L 17,4.227 V 12 H 16 V 4.881 L 9.276,1.938 a 0.697,0.697 0 0 0 -0.552,0 L 2.873,4.499 A 1.457,1.457 0 0 0 2,5.834 v 9.285 l 6.724,2.943 a 0.697,0.697 0 0 0 0.552,0 z m 6,4.93 A 3.79,3.79 0 0 1 14.783,20 H 16 v -1 h -3 v 3 h 1 V 20.644 A 4.796,4.796 0 0 0 22.8,18 h -1 A 3.804,3.804 0 0 1 18,21.8 Z M 13.2,18 h 1 a 3.79,3.79 0 0 1 7.017,-2 H 20 v 1 h 3 v -3 h -1 v 1.356 A 4.796,4.796 0 0 0 13.2,18 Z"
         id="path1-64"
         style="fill:#ff79ff;fill-opacity:1;stroke:none;stroke-opacity:1;stroke-width:0.99999001;stroke-dasharray:none" /><path
         d="m -4.9745252,-20.524725 c -0.2217615,-0.23875 -0.5970125,-0.246878 -0.8289041,-0.01795 l -7.8718937,7.872494 -1.050943,2.4514 c -0.07926,0.184529 0.107696,0.3710988 0.292062,0.2914635 l 2.4514,-1.0509425 7.871895,-7.870697 c 0.228924,-0.231892 0.2207959,-0.607143 -0.017955,-0.828904 z m -8.8312688,9.676332 0.575745,-1.34061 0.766063,0.766063 z m 1.804437,-0.957579 -0.839663,-0.846259 6.1566185,-6.163216 0.84626,0.84626 z m 7.2758023,-7.275203 -0.6894567,0.688858 -0.8462601,-0.846261 0.6996309,-0.69963 c 0.099665,-0.09905 0.2611703,-0.09716 0.3584934,0.0042 l 0.4811833,0.501532 c 0.094424,0.09864 0.092829,0.254622 -0.00359,0.351312 z"
         id="path1"
         sodipodi:nodetypes="cccccccccccccccccccccccccc"
         style="stroke-width:0.598486;fill:#ff79ff;fill-opacity:1"
         transform="translate(18.317343,25.284132)"
         inkscape:export-filename="rankswitch-favicon.svg"
         inkscape:export-xdpi="96"
         inkscape:export-ydpi="96" /></g></g></svg>
